General

Format                         : MPEG-4
Format profile                 : Base Media
Codec ID                       : isom
File size                      : 96.7 MiB
Duration                       : 4mn 0s
Overall bit rate mode          : Variable
Overall bit rate               : 3 372 Kbps
Encoded date                   : UTC 2012-09-28 04:11:29
Tagged date                    : UTC 2012-09-28 04:11:29

Video
ID                             : 1
Format                         : AVC
Format/Info                    : Advanced Video Codec
Format profile                 : High@L3.0
Format settings, CABAC         : Yes
Format settings, ReFrames      : 2 frames
Codec ID                       : avc1
Codec ID/Info                  : Advanced Video Coding
Duration                       : 4mn 0s
Bit rate                       : 3 306 Kbps
Maximum bit rate               : 7 760 Kbps
Width                          : 720 pixels
Height                         : 480 pixels
Display aspect ratio           : 16:9
Original display aspect ratio  : 16:9
Frame rate mode                : Constant
Frame rate                     : 25.000 fps
Standard                       : NTSC
Color space                    : YUV
Chroma subsampling             : 4:2:0
Bit depth                      : 8 bits
Scan type                      : Progressive
Bits/(Pixel*Frame)             : 0.383
Stream size                    : 94.7 MiB (98%)
Writing library                : x264 core 125 r2208 d9d2288


Audio
ID                             : 2
Format                         : AAC
Format/Info                    : Advanced Audio Codec
Format profile                 : LC
Codec ID                       : 40
Duration                       : 4mn 0s
Bit rate mode                  : Variable
Bit rate                       : 63.4 Kbps
Maximum bit rate               : 71.5 Kbps
Channel(s)                     : 2 channels
Channel positions              : Front: L R
Sampling rate                  : 44.1 KHz
Compression mode               : Lossy
Stream size                    : 1.82 MiB (2%)